<svg xmlns="http://www.w3.org/2000/svg" version="1.1" xmlns:xlink="http://www.w3.org/1999/xlink" xmlns:svgjs="http://svgjs.dev/svgjs" viewBox="0 0 1920 1080" class="overflow-hidden rounded-md drop-shadow-lg transition duration-300" style="overflow: hidden; height: 85vh;"><rect width="1920" height="1080" fill="#3282b8"/><g clip-path="url(&quot;#SvgjsClipPath1262&quot;)"><g transform="matrix(-1.0422539550921472,0.4860110010018044,-0.4860110010018044,-1.0422539550921472,2194.2782476498,643.0840300776874)"><path d="M0,-1080C-0.24230423002319768,-1006.5883680753398,0.08500287210967805,-792.9731712419268,-1.453825380139186,-639.5302084520389C-2.99265363238805,-486.08724566215096,-14.558886468840392,-320.4141548630506,-9.232969513493185,-159.34222326067248C-3.9070525581459776,1.7297083417056456,30.649235958897542,168.79246026480155,30.501676351944056,326.9013811622299C30.35411674499057,485.0103020596582,-6.591395958490679,636.8234285465413,-10.11832715521409,789.3113021238976C-13.6452583519375,941.7991757012538,12.331566595134719,1090.9048709358124,9.340089171603594,1241.8286226263676C6.34861174807247,1392.752374316923,-26.510510167800238,1541.8252493716236,-28.067191696400837,1694.853812267229C-29.623873225001436,1847.8823751628343,-4.677865282733473,2082.4756353778716,0,2160L 1920 2160 L 1920 -1080 Z" fill="url(&quot;#SvgjsLinearGradient1258&quot;)"/><path d="M480,-1080C477.88720228138885,-984.2618453517622,471.98945384622084,-688.5625324588661,467.3232136883332,-505.57107211057286C462.6569735304456,-322.5796117622796,454.3875175563552,-159.61000358500746,452.00255905267437,17.94876208975934C449.61760054899355,195.50752776452617,451.6352590363325,387.2114762007384,453.0134626662484,559.781521938028C454.3916662961643,732.3515676753177,455.8430533707221,876.6608887141347,460.2717808321696,1053.3690365134971C464.70050829361713,1230.0771843128596,476.2977909069619,1435.5919148197856,479.5858274349336,1620.0304087342029C482.8738639629053,1804.46890264862,479.9309712391556,2070.005068122367,480,2160L 1920 2160 L 1920 -1080 Z" fill="url(&quot;#SvgjsLinearGradient1259&quot;)"/><path d="M960,-1080C965.1128628092272,-977.7718353699121,989.0872072940249,-680.2397591008119,990.6771768553631,-466.6310122194723C992.2671464167013,-253.02226533813283,973.2077699577504,-22.546403312161686,969.5398173680289,201.65248128803717C965.8718647783074,425.85136588823605,975.260856306623,654.5496838903996,968.6694613170343,878.5622953817208C962.0780663274456,1102.574906873042,931.4363576500024,1332.155199466251,929.9914474304967,1545.7281502359642C928.546537210991,1759.3011010056775,954.9985745717495,2057.621358372661,960,2160L 1920 2160 L 1920 -1080 Z" fill="url(&quot;#SvgjsLinearGradient1260&quot;)"/><path d="M1440,-1080C1437.503497777762,-997.1135627968214,1428.0151474073125,-734.467935933889,1425.020986666572,-582.6813767809283C1422.0268259258316,-430.89481762796765,1417.2443838473994,-321.94338360138113,1422.0350355555577,-169.28064508223594C1426.825687263716,-16.61790656309077,1455.3043024539181,170.68844351734265,1453.7648969155216,333.29505433394263C1452.225491377125,495.9016651505426,1413.2031088169238,660.2565850171667,1412.7986023251788,806.359019817364C1412.3940958334338,952.4614546175613,1452.5356909577592,1060.6369767051692,1451.3378579650523,1209.9096631351265C1450.1400249723454,1359.1823495650838,1407.5012473631125,1543.6467489196293,1405.6116043689372,1701.9951383971081C1403.7219613747618,1860.343527874587,1434.2686007281561,2083.665856399518,1440,2160L 1920 2160 L 1920 -1080 Z" fill="url(&quot;#SvgjsLinearGradient1261&quot;)"/></g></g><defs><linearGradient x1="0.1" y1="0" x2="0" y2="1" id="SvgjsLinearGradient1258"><stop stop-color="#3282b8" offset="0"/><stop stop-color="#3298b8" offset="0"/></linearGradient><linearGradient x1="0.1" y1="0" x2="0" y2="1" id="SvgjsLinearGradient1259"><stop stop-color="#5ea4d3" offset="0"/><stop stop-color="#5eb7d3" offset="0.25"/></linearGradient><linearGradient x1="0.1" y1="0" x2="0" y2="1" id="SvgjsLinearGradient1260"><stop stop-color="#96c4e3" offset="0"/><stop stop-color="#96d1e3" offset="0.5"/></linearGradient><linearGradient x1="0.1" y1="0" x2="0" y2="1" id="SvgjsLinearGradient1261"><stop stop-color="#cee4f2" offset="0"/><stop stop-color="#ceeaf2" offset="0.75"/></linearGradient><clipPath id="SvgjsClipPath1262"><rect width="1920" height="1080"/></clipPath></defs></svg>